<svg xmlns="http://www.w3.org/2000/svg" viewBox="0 0 512 512">
<rect width="100%" height="100%" fill="white"/>
<rect x="78" y="99" width="4" height="1" fill="black"/>
<rect x="85" y="100" width="342" height="44" fill="black"/>
<rect x="80" y="101" width="5" height="187" fill="black"/>
<rect x="427" y="101" width="5" height="187" fill="black"/>
<rect x="78" y="102" width="2" height="185" fill="black"/>
<rect x="432" y="102" width="2" height="185" fill="black"/>
<rect x="74" y="103" width="4" height="2" fill="black"/>
<rect x="434" y="103" width="4" height="2" fill="black"/>
<rect x="75" y="105" width="3" height="179" fill="black"/>
<rect x="434" y="105" width="3" height="181" fill="black"/>
<rect x="74" y="106" width="1" height="180" fill="black"/>
<rect x="437" y="106" width="1" height="177" fill="black"/>
<rect x="70" y="107" width="1" height="1" fill="black"/>
<rect x="73" y="107" width="1" height="174" fill="black"/>
<rect x="438" y="109" width="1" height="172" fill="black"/>
<rect x="70" y="110" width="1" height="2" fill="black"/>
<rect x="441" y="111" width="1" height="1" fill="black"/>
<rect x="72" y="112" width="1" height="165" fill="black"/>
<rect x="439" y="112" width="1" height="165" fill="black"/>
<rect x="85" y="144" width="14" height="1" fill="black"/>
<rect x="144" y="144" width="22" height="1" fill="black"/>
<rect x="167" y="144" width="1" height="1" fill="black"/>
<rect x="211" y="144" width="22" height="1" fill="black"/>
<rect x="277" y="144" width="1" height="1" fill="black"/>
<rect x="279" y="144" width="22" height="1" fill="black"/>
<rect x="411" y="144" width="1" height="1" fill="black"/>
<rect x="413" y="144" width="14" height="1" fill="black"/>
<rect x="85" y="145" width="12" height="1" fill="black"/>
<rect x="146" y="145" width="18" height="1" fill="black"/>
<rect x="213" y="145" width="18" height="1" fill="black"/>
<rect x="281" y="145" width="18" height="1" fill="black"/>
<rect x="415" y="145" width="12" height="1" fill="black"/>
<rect x="85" y="146" width="11" height="1" fill="black"/>
<rect x="98" y="146" width="4" height="1" fill="black"/>
<rect x="143" y="146" width="2" height="1" fill="black"/>
<rect x="146" y="146" width="17" height="1" fill="black"/>
<rect x="166" y="146" width="2" height="1" fill="black"/>
<rect x="210" y="146" width="1" height="1" fill="black"/>
<rect x="215" y="146" width="15" height="1" fill="black"/>
<rect x="233" y="146" width="2" height="1" fill="black"/>
<rect x="277" y="146" width="2" height="1" fill="black"/>
<rect x="282" y="146" width="15" height="1" fill="black"/>
<rect x="301" y="146" width="1" height="1" fill="black"/>
<rect x="411" y="146" width="3" height="1" fill="black"/>
<rect x="416" y="146" width="11" height="1" fill="black"/>
<rect x="85" y="147" width="10" height="1" fill="black"/>
<rect x="148" y="147" width="14" height="2" fill="black"/>
<rect x="213" y="147" width="1" height="1" fill="black"/>
<rect x="215" y="147" width="14" height="1" fill="black"/>
<rect x="283" y="147" width="14" height="1" fill="black"/>
<rect x="298" y="147" width="1" height="1" fill="black"/>
<rect x="417" y="147" width="10" height="1" fill="black"/>
<rect x="85" y="148" width="9" height="5" fill="black"/>
<rect x="214" y="148" width="1" height="3" fill="black"/>
<rect x="216" y="148" width="13" height="1" fill="black"/>
<rect x="283" y="148" width="13" height="2" fill="black"/>
<rect x="297" y="148" width="1" height="3" fill="black"/>
<rect x="418" y="148" width="9" height="5" fill="black"/>
<rect x="148" y="149" width="13" height="2" fill="black"/>
<rect x="216" y="149" width="12" height="2" fill="black"/>
<rect x="284" y="150" width="11" height="4" fill="black"/>
<rect x="148" y="151" width="1" height="60" fill="black"/>
<rect x="150" y="151" width="11" height="2" fill="black"/>
<rect x="217" y="151" width="11" height="3" fill="black"/>
<rect x="85" y="153" width="8" height="136" fill="black"/>
<rect x="150" y="153" width="10" height="58" fill="black"/>
<rect x="419" y="153" width="8" height="136" fill="black"/>
<rect x="217" y="154" width="10" height="57" fill="black"/>
<rect x="285" y="154" width="10" height="136" fill="black"/>
<rect x="160" y="191" width="1" height="20" fill="black"/>
<rect x="227" y="191" width="1" height="20" fill="black"/>
<rect x="284" y="191" width="1" height="30" fill="black"/>
<rect x="93" y="192" width="1" height="28" fill="black"/>
<rect x="418" y="192" width="1" height="28" fill="black"/>
<rect x="162" y="193" width="1" height="1" fill="black"/>
<rect x="214" y="193" width="1" height="3" fill="black"/>
<rect x="297" y="193" width="1" height="3" fill="black"/>
<rect x="149" y="194" width="1" height="17" fill="black"/>
<rect x="295" y="194" width="1" height="23" fill="black"/>
<rect x="216" y="195" width="1" height="16" fill="black"/>
<rect x="228" y="195" width="1" height="16" fill="black"/>
<rect x="283" y="195" width="1" height="21" fill="black"/>
<rect x="94" y="196" width="1" height="19" fill="black"/>
<rect x="161" y="196" width="1" height="15" fill="black"/>
<rect x="417" y="196" width="1" height="19" fill="black"/>
<rect x="95" y="197" width="53" height="1" fill="black"/>
<rect x="162" y="197" width="54" height="1" fill="black"/>
<rect x="229" y="197" width="54" height="1" fill="black"/>
<rect x="296" y="197" width="121" height="1" fill="black"/>
<rect x="95" y="198" width="2" height="15" fill="black"/>
<rect x="100" y="198" width="3" height="1" fill="black"/>
<rect x="143" y="198" width="1" height="13" fill="black"/>
<rect x="147" y="198" width="1" height="13" fill="black"/>
<rect x="162" y="198" width="2" height="13" fill="black"/>
<rect x="165" y="198" width="3" height="1" fill="black"/>
<rect x="214" y="198" width="2" height="13" fill="black"/>
<rect x="229" y="198" width="2" height="13" fill="black"/>
<rect x="235" y="198" width="2" height="1" fill="black"/>
<rect x="276" y="198" width="2" height="1" fill="black"/>
<rect x="281" y="198" width="2" height="15" fill="black"/>
<rect x="296" y="198" width="2" height="16" fill="black"/>
<rect x="409" y="198" width="3" height="1" fill="black"/>
<rect x="415" y="198" width="2" height="15" fill="black"/>
<rect x="97" y="199" width="1" height="14" fill="black"/>
<rect x="146" y="199" width="1" height="12" fill="black"/>
<rect x="164" y="199" width="1" height="12" fill="black"/>
<rect x="166" y="199" width="2" height="12" fill="black"/>
<rect x="210" y="199" width="1" height="12" fill="black"/>
<rect x="213" y="199" width="1" height="12" fill="black"/>
<rect x="231" y="199" width="1" height="12" fill="black"/>
<rect x="280" y="199" width="1" height="13" fill="black"/>
<rect x="298" y="199" width="1" height="14" fill="black"/>
<rect x="301" y="199" width="1" height="12" fill="black"/>
<rect x="411" y="199" width="1" height="13" fill="black"/>
<rect x="414" y="199" width="1" height="13" fill="black"/>
<rect x="98" y="200" width="45" height="11" fill="black"/>
<rect x="144" y="200" width="2" height="11" fill="black"/>
<rect x="165" y="200" width="1" height="11" fill="black"/>
<rect x="168" y="200" width="42" height="11" fill="black"/>
<rect x="211" y="200" width="2" height="11" fill="black"/>
<rect x="232" y="200" width="48" height="11" fill="black"/>
<rect x="299" y="200" width="2" height="12" fill="black"/>
<rect x="302" y="200" width="109" height="11" fill="black"/>
<rect x="412" y="200" width="2" height="12" fill="black"/>
<rect x="98" y="211" width="3" height="1" fill="black"/>
<rect x="276" y="211" width="4" height="1" fill="black"/>
<rect x="302" y="211" width="1" height="1" fill="black"/>
<rect x="344" y="211" width="24" height="1" fill="black"/>
<rect x="369" y="211" width="1" height="1" fill="black"/>
<rect x="347" y="212" width="19" height="1" fill="black"/>
<rect x="95" y="213" width="1" height="1" fill="black"/>
<rect x="282" y="213" width="1" height="2" fill="black"/>
<rect x="349" y="213" width="16" height="1" fill="black"/>
<rect x="416" y="213" width="1" height="1" fill="black"/>
<rect x="296" y="214" width="1" height="1" fill="black"/>
<rect x="350" y="214" width="14" height="2" fill="black"/>
<rect x="297" y="216" width="1" height="1" fill="black"/>
<rect x="351" y="216" width="13" height="2" fill="black"/>
<rect x="351" y="218" width="11" height="3" fill="black"/>
<rect x="363" y="218" width="1" height="72" fill="black"/>
<rect x="352" y="221" width="10" height="69" fill="black"/>
<rect x="284" y="258" width="1" height="32" fill="black"/>
<rect x="351" y="258" width="1" height="32" fill="black"/>
<rect x="93" y="259" width="1" height="31" fill="black"/>
<rect x="418" y="259" width="1" height="31" fill="black"/>
<rect x="283" y="261" width="1" height="29" fill="black"/>
<rect x="295" y="261" width="1" height="29" fill="black"/>
<rect x="362" y="261" width="1" height="29" fill="black"/>
<rect x="297" y="262" width="1" height="28" fill="black"/>
<rect x="348" y="262" width="1" height="2" fill="black"/>
<rect x="94" y="263" width="1" height="27" fill="black"/>
<rect x="279" y="263" width="1" height="2" fill="black"/>
<rect x="298" y="263" width="1" height="2" fill="black"/>
<rect x="350" y="263" width="1" height="27" fill="black"/>
<rect x="367" y="263" width="1" height="1" fill="black"/>
<rect x="414" y="263" width="1" height="2" fill="black"/>
<rect x="417" y="263" width="1" height="27" fill="black"/>
<rect x="282" y="264" width="1" height="26" fill="black"/>
<rect x="296" y="264" width="1" height="26" fill="black"/>
<rect x="349" y="264" width="1" height="26" fill="black"/>
<rect x="364" y="264" width="1" height="26" fill="black"/>
<rect x="416" y="264" width="1" height="26" fill="black"/>
<rect x="95" y="265" width="1" height="25" fill="black"/>
<rect x="281" y="265" width="1" height="25" fill="black"/>
<rect x="348" y="265" width="1" height="25" fill="black"/>
<rect x="415" y="265" width="1" height="25" fill="black"/>
<rect x="96" y="266" width="2" height="24" fill="black"/>
<rect x="280" y="266" width="1" height="24" fill="black"/>
<rect x="298" y="266" width="1" height="24" fill="black"/>
<rect x="347" y="266" width="1" height="24" fill="black"/>
<rect x="365" y="266" width="1" height="24" fill="black"/>
<rect x="414" y="266" width="1" height="24" fill="black"/>
<rect x="98" y="267" width="182" height="23" fill="black"/>
<rect x="299" y="267" width="48" height="23" fill="black"/>
<rect x="366" y="267" width="48" height="23" fill="black"/>
<rect x="70" y="277" width="1" height="2" fill="black"/>
<rect x="441" y="277" width="1" height="1" fill="black"/>
<rect x="70" y="281" width="1" height="1" fill="black"/>
<rect x="76" y="284" width="2" height="2" fill="black"/>
<rect x="437" y="284" width="1" height="2" fill="black"/>
<rect x="432" y="287" width="1" height="1" fill="black"/>
<rect x="78" y="288" width="1" height="2" fill="black"/>
<rect x="82" y="288" width="1" height="1" fill="black"/>
<rect x="84" y="288" width="1" height="2" fill="black"/>
<rect x="427" y="288" width="1" height="2" fill="black"/>
<rect x="429" y="288" width="1" height="1" fill="black"/>
<rect x="433" y="288" width="1" height="2" fill="black"/>
<rect x="79" y="289" width="3" height="1" fill="black"/>
<rect x="90" y="289" width="3" height="1" fill="black"/>
<rect x="419" y="289" width="3" height="1" fill="black"/>
<rect x="430" y="289" width="3" height="1" fill="black"/>
<rect x="90" y="324" width="1" height="110" fill="black"/>
<rect x="92" y="324" width="4" height="106" fill="black"/>
<rect x="97" y="324" width="1" height="106" fill="black"/>
<rect x="105" y="324" width="1" height="1" fill="black"/>
<rect x="160" y="324" width="2" height="1" fill="black"/>
<rect x="165" y="324" width="6" height="106" fill="black"/>
<rect x="172" y="324" width="2" height="108" fill="black"/>
<rect x="201" y="324" width="6" height="1" fill="black"/>
<rect x="210" y="324" width="1" height="105" fill="black"/>
<rect x="212" y="324" width="4" height="105" fill="black"/>
<rect x="217" y="324" width="1" height="105" fill="black"/>
<rect x="261" y="324" width="1" height="105" fill="black"/>
<rect x="264" y="324" width="5" height="105" fill="black"/>
<rect x="273" y="324" width="1" height="1" fill="black"/>
<rect x="308" y="324" width="1" height="1" fill="black"/>
<rect x="313" y="324" width="8" height="105" fill="black"/>
<rect x="326" y="324" width="1" height="1" fill="black"/>
<rect x="354" y="324" width="1" height="1" fill="black"/>
<rect x="424" y="324" width="1" height="1" fill="black"/>
<rect x="88" y="325" width="2" height="105" fill="black"/>
<rect x="91" y="325" width="1" height="109" fill="black"/>
<rect x="96" y="325" width="1" height="105" fill="black"/>
<rect x="98" y="325" width="2" height="103" fill="black"/>
<rect x="163" y="325" width="2" height="103" fill="black"/>
<rect x="171" y="325" width="1" height="109" fill="black"/>
<rect x="174" y="325" width="1" height="106" fill="black"/>
<rect x="201" y="325" width="1" height="5" fill="black"/>
<rect x="207" y="325" width="3" height="103" fill="black"/>
<rect x="211" y="325" width="1" height="104" fill="black"/>
<rect x="216" y="325" width="1" height="104" fill="black"/>
<rect x="218" y="325" width="2" height="104" fill="black"/>
<rect x="259" y="325" width="2" height="104" fill="black"/>
<rect x="262" y="325" width="2" height="104" fill="black"/>
<rect x="269" y="325" width="2" height="104" fill="black"/>
<rect x="311" y="325" width="2" height="104" fill="black"/>
<rect x="321" y="325" width="2" height="103" fill="black"/>
<rect x="86" y="326" width="2" height="104" fill="black"/>
<rect x="100" y="326" width="2" height="101" fill="black"/>
<rect x="161" y="326" width="2" height="100" fill="black"/>
<rect x="175" y="326" width="3" height="103" fill="black"/>
<rect x="203" y="326" width="1" height="1" fill="black"/>
<rect x="206" y="326" width="1" height="102" fill="black"/>
<rect x="220" y="326" width="2" height="103" fill="black"/>
<rect x="257" y="326" width="2" height="103" fill="black"/>
<rect x="271" y="326" width="2" height="103" fill="black"/>
<rect x="309" y="326" width="2" height="103" fill="black"/>
<rect x="323" y="326" width="2" height="101" fill="black"/>
<rect x="355" y="326" width="69" height="20" fill="black"/>
<rect x="84" y="327" width="2" height="102" fill="black"/>
<rect x="102" y="327" width="1" height="98" fill="black"/>
<rect x="105" y="327" width="1" height="2" fill="black"/>
<rect x="160" y="327" width="1" height="97" fill="black"/>
<rect x="178" y="327" width="1" height="102" fill="black"/>
<rect x="204" y="327" width="2" height="99" fill="black"/>
<rect x="222" y="327" width="1" height="102" fill="black"/>
<rect x="256" y="327" width="1" height="102" fill="black"/>
<rect x="273" y="327" width="1" height="102" fill="black"/>
<rect x="308" y="327" width="1" height="102" fill="black"/>
<rect x="325" y="327" width="1" height="100" fill="black"/>
<rect x="353" y="327" width="2" height="103" fill="black"/>
<rect x="424" y="327" width="3" height="102" fill="black"/>
<rect x="78" y="328" width="4" height="3" fill="black"/>
<rect x="103" y="328" width="1" height="94" fill="black"/>
<rect x="156" y="328" width="1" height="2" fill="black"/>
<rect x="159" y="328" width="1" height="43" fill="black"/>
<rect x="179" y="328" width="5" height="1" fill="black"/>
<rect x="203" y="328" width="1" height="97" fill="black"/>
<rect x="223" y="328" width="3" height="1" fill="black"/>
<rect x="228" y="328" width="1" height="1" fill="black"/>
<rect x="255" y="328" width="1" height="101" fill="black"/>
<rect x="274" y="328" width="1" height="101" fill="black"/>
<rect x="277" y="328" width="1" height="101" fill="black"/>
<rect x="304" y="328" width="1" height="1" fill="black"/>
<rect x="307" y="328" width="1" height="101" fill="black"/>
<rect x="326" y="328" width="1" height="98" fill="black"/>
<rect x="351" y="328" width="2" height="100" fill="black"/>
<rect x="427" y="328" width="3" height="98" fill="black"/>
<rect x="83" y="329" width="1" height="99" fill="black"/>
<rect x="104" y="329" width="1" height="43" fill="black"/>
<rect x="179" y="329" width="1" height="99" fill="black"/>
<rect x="183" y="329" width="1" height="101" fill="black"/>
<rect x="223" y="329" width="2" height="100" fill="black"/>
<rect x="275" y="329" width="1" height="100" fill="black"/>
<rect x="306" y="329" width="1" height="100" fill="black"/>
<rect x="327" y="329" width="1" height="95" fill="black"/>
<rect x="82" y="330" width="1" height="97" fill="black"/>
<rect x="105" y="330" width="1" height="43" fill="black"/>
<rect x="158" y="330" width="1" height="42" fill="black"/>
<rect x="180" y="330" width="2" height="1" fill="black"/>
<rect x="254" y="330" width="1" height="99" fill="black"/>
<rect x="276" y="330" width="1" height="99" fill="black"/>
<rect x="349" y="330" width="2" height="96" fill="black"/>
<rect x="78" y="331" width="2" height="5" fill="black"/>
<rect x="157" y="331" width="1" height="42" fill="black"/>
<rect x="180" y="331" width="1" height="96" fill="black"/>
<rect x="202" y="331" width="1" height="92" fill="black"/>
<rect x="228" y="331" width="1" height="74" fill="black"/>
<rect x="305" y="331" width="1" height="98" fill="black"/>
<rect x="106" y="332" width="1" height="43" fill="black"/>
<rect x="109" y="332" width="1" height="2" fill="black"/>
<rect x="181" y="332" width="2" height="1" fill="black"/>
<rect x="225" y="332" width="1" height="97" fill="black"/>
<rect x="253" y="332" width="1" height="97" fill="black"/>
<rect x="304" y="332" width="1" height="97" fill="black"/>
<rect x="328" y="332" width="1" height="90" fill="black"/>
<rect x="430" y="332" width="4" height="1" fill="black"/>
<rect x="81" y="333" width="1" height="92" fill="black"/>
<rect x="107" y="333" width="1" height="48" fill="black"/>
<rect x="156" y="333" width="1" height="43" fill="black"/>
<rect x="181" y="333" width="1" height="94" fill="black"/>
<rect x="201" y="333" width="1" height="88" fill="black"/>
<rect x="348" y="333" width="1" height="91" fill="black"/>
<rect x="430" y="333" width="1" height="92" fill="black"/>
<rect x="432" y="333" width="2" height="1" fill="black"/>
<rect x="155" y="334" width="1" height="43" fill="black"/>
<rect x="433" y="334" width="1" height="91" fill="black"/>
<rect x="108" y="335" width="1" height="46" fill="black"/>
<rect x="182" y="335" width="1" height="91" fill="black"/>
<rect x="78" y="336" width="1" height="89" fill="black"/>
<rect x="152" y="336" width="1" height="1" fill="black"/>
<rect x="154" y="336" width="1" height="49" fill="black"/>
<rect x="431" y="336" width="1" height="85" fill="black"/>
<rect x="109" y="338" width="1" height="44" fill="black"/>
<rect x="152" y="338" width="2" height="1" fill="black"/>
<rect x="153" y="339" width="1" height="46" fill="black"/>
<rect x="110" y="340" width="1" height="43" fill="black"/>
<rect x="113" y="340" width="1" height="3" fill="black"/>
<rect x="152" y="340" width="1" height="45" fill="black"/>
<rect x="80" y="342" width="1" height="80" fill="black"/>
<rect x="111" y="342" width="1" height="43" fill="black"/>
<rect x="151" y="343" width="1" height="43" fill="black"/>
<rect x="112" y="344" width="2" height="43" fill="black"/>
<rect x="148" y="344" width="1" height="2" fill="black"/>
<rect x="150" y="345" width="1" height="43" fill="black"/>
<rect x="355" y="346" width="18" height="1" fill="black"/>
<rect x="407" y="346" width="17" height="77" fill="black"/>
<rect x="149" y="347" width="1" height="42" fill="black"/>
<rect x="355" y="347" width="17" height="77" fill="black"/>
<rect x="114" y="348" width="1" height="43" fill="black"/>
<rect x="117" y="349" width="1" height="2" fill="black"/>
<rect x="148" y="349" width="1" height="42" fill="black"/>
<rect x="115" y="350" width="1" height="43" fill="black"/>
<rect x="147" y="351" width="1" height="42" fill="black"/>
<rect x="116" y="352" width="1" height="43" fill="black"/>
<rect x="144" y="352" width="1" height="2" fill="black"/>
<rect x="146" y="353" width="1" height="42" fill="black"/>
<rect x="117" y="354" width="1" height="43" fill="black"/>
<rect x="145" y="355" width="1" height="42" fill="black"/>
<rect x="118" y="356" width="1" height="43" fill="black"/>
<rect x="144" y="356" width="1" height="43" fill="black"/>
<rect x="121" y="357" width="1" height="1" fill="black"/>
<rect x="119" y="358" width="1" height="51" fill="black"/>
<rect x="143" y="359" width="1" height="42" fill="black"/>
<rect x="120" y="360" width="1" height="43" fill="black"/>
<rect x="140" y="361" width="1" height="1" fill="black"/>
<rect x="142" y="361" width="1" height="48" fill="black"/>
<rect x="121" y="362" width="1" height="44" fill="black"/>
<rect x="141" y="363" width="1" height="42" fill="black"/>
<rect x="122" y="364" width="1" height="43" fill="black"/>
<rect x="140" y="364" width="1" height="43" fill="black"/>
<rect x="125" y="365" width="1" height="3" fill="black"/>
<rect x="136" y="365" width="3" height="1" fill="black"/>
<rect x="123" y="366" width="2" height="43" fill="black"/>
<rect x="136" y="366" width="1" height="6" fill="black"/>
<rect x="138" y="367" width="2" height="42" fill="black"/>
<rect x="137" y="368" width="1" height="42" fill="black"/>
<rect x="125" y="370" width="1" height="40" fill="black"/>
<rect x="126" y="372" width="1" height="38" fill="black"/>
<rect x="136" y="373" width="1" height="37" fill="black"/>
<rect x="127" y="374" width="1" height="36" fill="black"/>
<rect x="135" y="375" width="1" height="35" fill="black"/>
<rect x="128" y="376" width="1" height="35" fill="black"/>
<rect x="106" y="377" width="1" height="4" fill="black"/>
<rect x="130" y="377" width="3" height="1" fill="black"/>
<rect x="134" y="377" width="1" height="34" fill="black"/>
<rect x="129" y="378" width="1" height="33" fill="black"/>
<rect x="131" y="378" width="1" height="2" fill="black"/>
<rect x="133" y="379" width="1" height="32" fill="black"/>
<rect x="130" y="380" width="1" height="31" fill="black"/>
<rect x="132" y="381" width="1" height="30" fill="black"/>
<rect x="131" y="382" width="1" height="29" fill="black"/>
<rect x="108" y="383" width="1" height="1" fill="black"/>
<rect x="105" y="385" width="1" height="40" fill="black"/>
<rect x="113" y="387" width="1" height="2" fill="black"/>
<rect x="111" y="388" width="1" height="1" fill="black"/>
<rect x="150" y="390" width="1" height="3" fill="black"/>
<rect x="115" y="396" width="1" height="3" fill="black"/>
<rect x="146" y="398" width="1" height="3" fill="black"/>
<rect x="115" y="400" width="4" height="1" fill="black"/>
<rect x="145" y="400" width="1" height="1" fill="black"/>
<rect x="120" y="404" width="1" height="1" fill="black"/>
<rect x="278" y="406" width="1" height="1" fill="black"/>
<rect x="303" y="406" width="1" height="1" fill="black"/>
<rect x="141" y="407" width="1" height="2" fill="black"/>
<rect x="120" y="408" width="3" height="1" fill="black"/>
<rect x="140" y="408" width="1" height="1" fill="black"/>
<rect x="226" y="409" width="27" height="20" fill="black"/>
<rect x="278" y="409" width="26" height="20" fill="black"/>
<rect x="127" y="412" width="10" height="1" fill="black"/>
<rect x="138" y="412" width="1" height="1" fill="black"/>
<rect x="79" y="422" width="1" height="1" fill="black"/>
<rect x="201" y="423" width="1" height="3" fill="black"/>
<rect x="406" y="423" width="1" height="3" fill="black"/>
<rect x="408" y="423" width="16" height="3" fill="black"/>
<rect x="79" y="424" width="2" height="1" fill="black"/>
<rect x="355" y="424" width="16" height="1" fill="black"/>
<rect x="160" y="425" width="1" height="5" fill="black"/>
<rect x="355" y="425" width="15" height="2" fill="black"/>
<rect x="162" y="426" width="1" height="1" fill="black"/>
<rect x="205" y="426" width="1" height="1" fill="black"/>
<rect x="350" y="426" width="1" height="1" fill="black"/>
<rect x="409" y="426" width="15" height="1" fill="black"/>
<rect x="427" y="426" width="2" height="2" fill="black"/>
<rect x="100" y="427" width="1" height="1" fill="black"/>
<rect x="323" y="427" width="1" height="1" fill="black"/>
<rect x="355" y="427" width="14" height="1" fill="black"/>
<rect x="410" y="427" width="14" height="1" fill="black"/>
<rect x="98" y="428" width="1" height="1" fill="black"/>
<rect x="101" y="428" width="1" height="2" fill="black"/>
<rect x="164" y="428" width="1" height="1" fill="black"/>
<rect x="208" y="428" width="2" height="1" fill="black"/>
<rect x="321" y="428" width="1" height="1" fill="black"/>
<rect x="326" y="428" width="1" height="1" fill="black"/>
<rect x="349" y="428" width="1" height="1" fill="black"/>
<rect x="352" y="428" width="1" height="1" fill="black"/>
<rect x="355" y="428" width="13" height="1" fill="black"/>
<rect x="412" y="428" width="12" height="1" fill="black"/>
<rect x="429" y="428" width="1" height="1" fill="black"/>
<rect x="175" y="429" width="2" height="1" fill="black"/>
<rect x="180" y="429" width="1" height="1" fill="black"/>
<rect x="205" y="429" width="1" height="1" fill="black"/>
<rect x="355" y="429" width="12" height="1" fill="black"/>
<rect x="413" y="429" width="13" height="1" fill="black"/>
<rect x="89" y="430" width="1" height="1" fill="black"/>
<rect x="92" y="430" width="3" height="1" fill="black"/>
<rect x="168" y="430" width="3" height="4" fill="black"/>
<rect x="356" y="430" width="8" height="1" fill="black"/>
<rect x="416" y="430" width="7" height="1" fill="black"/>
<rect x="92" y="431" width="2" height="3" fill="black"/>
<rect x="357" y="431" width="7" height="3" fill="black"/>
<rect x="418" y="431" width="4" height="3" fill="black"/>
<rect x="175" y="432" width="1" height="2" fill="black"/>
<rect x="172" y="433" width="3" height="1" fill="black"/>
</svg>